<svg xmlns="http://www.w3.org/2000/svg" viewBox="0 0 42.94 40"><defs><style>.cls-1{fill:#fafafa;}</style></defs><title>mobile-logo</title><g id="Capa_2" data-name="Capa 2"><g id="Capa_1-2" data-name="Capa 1"><path class="cls-1" d="M9.05,21.38c.23-2.66,1.94-3.94,5.16-3.94,4.36,0,5.16,1,5.16,5.37v3.74c0,4.34-.8,5.32-5.16,5.32-3.17,0-4.88-1-5.16-2.9ZM0,0V39.41H8.76V32.32c1,5.12,4,7.68,9.29,7.68,8.81,0,10.8-2.22,10.8-13.25V22.51c0-11-2-13.25-10.33-13.25-5.68,0-8.43,1.33-9.52,5.91V0Z"/><path class="cls-1" d="M42.94,31h-8v8.38h8Z"/></g></g></svg>