<svg xmlns="http://www.w3.org/2000/svg" viewBox="0 0 126.84 126.18"><defs><style>.cls-1,.cls-2{fill:none;stroke:#fff;stroke-miterlimit:10;stroke-width:1.52px;}.cls-2{stroke-linecap:round;}</style></defs><title>world</title><g id="Capa_2" data-name="Capa 2"><g id="Capa_1-2" data-name="Capa 1"><path class="cls-1" d="M63.42,125.42A62.33,62.33,0,1,0,.76,63.09,62.5,62.5,0,0,0,63.42,125.42Z"/><path class="cls-1" d="M63.42,125.42c24.52,0,44.4-27.91,44.4-62.33S87.94.76,63.42.76,19,28.67,19,63.09,38.89,125.42,63.42,125.42Z"/><path class="cls-1" d="M63.42,125.42c14.46,0,26.18-27.91,26.18-62.33S77.88.76,63.42.76,37.24,28.67,37.24,63.09,49,125.42,63.42,125.42Z"/><path class="cls-1" d="M63.42,125.42c4.38,0,7.93-27.91,7.93-62.33S67.8.76,63.42.76s-7.93,27.91-7.93,62.33S59,125.42,63.42,125.42Z"/><path class="cls-2" d="M28.34,11.54h70.3"/><path class="cls-2" d="M8.94,32.16H117.86"/><path class="cls-2" d="M9,94H117.81"/><path class="cls-2" d="M28.17,114.61H98.64"/></g></g></svg>