<svg xmlns="http://www.w3.org/2000/svg" viewBox="0 0 760.2 92.24"><defs><style>.cls-1{fill:#fff;}</style></defs><title>your-cart-desktop</title><g id="Capa_2" data-name="Capa 2"><g id="Capa_1-2" data-name="Capa 1"><path class="cls-1" d="M87.92,2.83H62.39L46,35H45.3L29.2,2.83H2.56L33.87,58.55V89.41H57.18V58.55ZM132.4,20.37c19.21,0,22.76,4,22.76,25.75s-3.55,25.75-22.76,25.75-22.75-4-22.75-25.75S113.2,20.37,132.4,20.37ZM85.23,46.12c0,37.63,7.43,44.62,47.17,44.62s47.18-7,47.18-44.62S172.14,1.5,132.4,1.5,85.23,8.49,85.23,46.12Zm179,7.77V2.83H240.87V53.89c0,15.21-2.33,18-15.1,18s-15.09-2.77-15.09-18V2.83H187.37V53.89c0,31.08,6,36.85,38.4,36.85S264.18,85,264.18,53.89ZM324.83,2.83H273.11V89.41h23.31V61.11h22.86c7.44,0,9.77,2.44,9.77,12.21,0,7.77.45,12.43,2.33,16.09h25.53v-1c-3.55-4-4.44-11.54-4.44-20.31,0-10.54-5-14-14.76-16.21,11.77-2.66,16-7.54,16-17.87V30.69C353.69,7.16,349.37,2.83,324.83,2.83ZM296.42,43.35V21.7h22.42c9.77,0,11.54,1.89,11.54,10.66,0,9.1-1.77,11-11.54,11Z"/><path class="cls-1" d="M87.92,2.83l1.32.73,1.22-2.23H87.92Zm-25.53,0V1.33h-.92l-.41.82ZM46,35v1.5h.92l.42-.82Zm-.66,0L44,35.69l.41.83h.93ZM29.2,2.83l1.34-.67-.41-.83H29.2Zm-26.64,0V1.33H0L1.26,3.57ZM33.87,58.55h1.5v-.39l-.2-.34Zm0,30.86h-1.5v1.5h1.5Zm23.31,0v1.5h1.5v-1.5Zm0-30.86-1.32-.72-.18.34v.38ZM87.92,1.33H62.39v3H87.92Zm-26.86.82L44.63,34.34,47.3,35.7,63.73,3.51ZM46,33.52H45.3v3H46Zm.68.83L30.54,2.16,27.86,3.5,44,35.69ZM29.2,1.33H2.56v3H29.2ZM1.26,3.57l31.3,55.72,2.61-1.47L3.87,2.1Zm31.11,55V89.41h3V58.55Zm1.5,32.36H57.18v-3H33.87Zm24.81-1.5V58.55h-3V89.41Zm-.19-30.13L89.24,3.56,86.61,2.11,55.86,57.83ZM132.4,21.87a51.59,51.59,0,0,1,11.32.92,11.19,11.19,0,0,1,6.14,3.29c1.39,1.58,2.36,3.82,3,7.11a75.22,75.22,0,0,1,.83,12.93h3a77,77,0,0,0-.88-13.47c-.66-3.58-1.78-6.42-3.68-8.56a14.18,14.18,0,0,0-7.7-4.22,54.4,54.4,0,0,0-12-1Zm21.26,24.25a75.14,75.14,0,0,1-.83,12.93c-.61,3.29-1.58,5.53-3,7.11a11.19,11.19,0,0,1-6.14,3.29,51.59,51.59,0,0,1-11.32.92v3a53.8,53.8,0,0,0,12-1,14.06,14.06,0,0,0,7.7-4.22c1.9-2.14,3-5,3.68-8.55a77.22,77.22,0,0,0,.88-13.48ZM132.4,70.37a51.55,51.55,0,0,1-11.31-.92A11.19,11.19,0,0,1,115,66.16c-1.4-1.58-2.37-3.82-3-7.11a74.14,74.14,0,0,1-.83-12.93h-3A77.22,77.22,0,0,0,109,59.6a17.24,17.24,0,0,0,3.67,8.55,14.13,14.13,0,0,0,7.7,4.22,53.86,53.86,0,0,0,12,1ZM111.15,46.12A74.21,74.21,0,0,1,112,33.19c.6-3.29,1.57-5.53,3-7.11a11.19,11.19,0,0,1,6.14-3.29,51.55,51.55,0,0,1,11.31-.92v-3a54.46,54.46,0,0,0-12,1,14.25,14.25,0,0,0-7.7,4.22A17.27,17.27,0,0,0,109,32.65a77,77,0,0,0-.88,13.47Zm-27.42,0c0,9.44.46,17.06,1.82,23.17s3.63,10.85,7.33,14.34,8.65,5.63,15.1,6.9,14.46,1.71,24.42,1.71v-3c-9.91,0-17.7-.43-23.84-1.65s-10.48-3.17-13.62-6.14-5.19-7-6.46-12.81S86.73,55.5,86.73,46.12ZM132.4,92.24c10,0,18-.43,24.43-1.71s11.4-3.41,15.09-6.9,6-8.2,7.34-14.34,1.82-13.73,1.82-23.17h-3c0,9.38-.47,16.74-1.75,22.52S173,78.5,169.86,81.45s-7.49,4.93-13.61,6.14-13.94,1.65-23.85,1.65Zm48.68-46.12c0-9.43-.47-17.06-1.82-23.17s-3.64-10.84-7.34-14.34S163.27,3,156.83,1.71,142.36,0,132.4,0V3c9.91,0,17.71.44,23.85,1.65s10.48,3.18,13.61,6.14,5.19,7.05,6.47,12.81,1.75,13.14,1.75,22.52ZM132.4,0c-10,0-18,.44-24.42,1.71s-11.41,3.41-15.1,6.9-6,8.21-7.33,14.34-1.82,13.74-1.82,23.17h3c0-9.38.46-16.74,1.75-22.52s3.34-9.85,6.46-12.81,7.49-4.93,13.62-6.14S122.49,3,132.4,3ZM264.18,2.83h1.5V1.33h-1.5Zm-23.31,0V1.33h-1.5v1.5Zm-30.19,0h1.5V1.33h-1.5Zm-23.31,0V1.33h-1.5v1.5Zm78.31,51.06V2.83h-3V53.89Zm-1.5-52.56H240.87v3h23.31Zm-24.81,1.5V53.89h3V2.83Zm0,51.06a55.31,55.31,0,0,1-.54,9A9.91,9.91,0,0,1,237,67.62c-1.68,2-4.74,2.75-11.19,2.75v3c6.31,0,10.8-.63,13.48-3.82a12.7,12.7,0,0,0,2.53-6.18,57.44,57.44,0,0,0,.59-9.48Zm-13.6,16.48c-6.45,0-9.51-.75-11.19-2.75a9.82,9.82,0,0,1-1.86-4.76,54.18,54.18,0,0,1-.54-9h-3a57.58,57.58,0,0,0,.58,9.48,12.7,12.7,0,0,0,2.53,6.18c2.68,3.19,7.17,3.82,13.48,3.82ZM212.18,53.89V2.83h-3V53.89Zm-1.5-52.56H187.37v3h23.31Zm-24.81,1.5V53.89h3V2.83Zm0,51.06c0,7.8.37,14.12,1.47,19.19s3,9,6,12,7.15,4.71,12.43,5.77,11.84,1.41,20,1.41v-3c-8.08,0-14.41-.36-19.38-1.35s-8.44-2.6-10.94-5-4.15-5.72-5.18-10.45-1.4-10.8-1.4-18.55Zm39.9,38.35c8.13,0,14.7-.36,20-1.41s9.37-2.84,12.43-5.77,4.92-6.89,6-12,1.48-11.39,1.48-19.19h-3c0,7.75-.38,13.8-1.41,18.55s-2.69,8.06-5.18,10.45-6,4-10.94,5-11.3,1.35-19.38,1.35ZM273.11,2.83V1.33h-1.5v1.5Zm0,86.58h-1.5v1.5h1.5Zm23.31,0v1.5h1.5v-1.5Zm0-28.3v-1.5h-1.5v1.5Zm35,28.3-1.33.69.42.81h.91Zm25.53,0v1.5h1.5v-1.5Zm0-1h1.5v-.57l-.38-.42Zm-19.2-36.52-.33-1.46v2.93Zm-41.29-8.54h-1.5v1.5h1.5Zm0-21.65V20.2h-1.5v1.5ZM324.83,1.33H273.11v3h51.72Zm-53.22,1.5V89.41h3V2.83Zm1.5,88.08h23.31v-3H273.11Zm24.81-1.5V61.11h-3v28.3Zm-1.5-26.8h22.86v-3H296.42Zm22.86,0c3.65,0,5.47.62,6.52,1.89s1.75,3.93,1.75,8.82h3c0-4.88-.55-8.44-2.44-10.73s-5-3-8.83-3Zm8.27,10.71c0,7.74.43,12.75,2.5,16.78l2.67-1.37c-1.7-3.31-2.17-7.62-2.17-15.41Zm3.83,17.59h25.53v-3H331.38Zm27-1.5v-1h-3v1Zm-.38-2c-1.51-1.71-2.55-4.29-3.2-7.66A63.84,63.84,0,0,1,354,68.1h-3a67,67,0,0,0,.92,12.23c.69,3.6,1.87,6.79,3.9,9.08ZM354,68.1c0-5.51-1.31-9.45-4.16-12.29S343,51.55,338,50.43l-.66,2.93c4.83,1.09,8.16,2.44,10.32,4.58S351,63.07,351,68.1ZM338,53.36c6-1.36,10.36-3.34,13.2-6.53s3.95-7.45,3.95-12.81h-3c0,5-1,8.35-3.2,10.81s-5.84,4.3-11.61,5.6ZM355.19,34V30.69h-3V34Zm0-3.33A73.08,73.08,0,0,0,354.1,16.1c-.83-3.89-2.23-7-4.59-9.24S344,3.21,340,2.41a79.48,79.48,0,0,0-15.16-1.08v3a76.7,76.7,0,0,1,14.57,1c3.69.74,6.22,1.92,8,3.66s3,4.18,3.75,7.71a70.59,70.59,0,0,1,1,14ZM297.92,43.35V21.7h-3V43.35Zm-1.5-20.15h22.42v-3H296.42Zm22.42,0a29.74,29.74,0,0,1,5.63.4,5.6,5.6,0,0,1,2.78,1.23,4.65,4.65,0,0,1,1.24,2.49,24,24,0,0,1,.39,5h3a27.13,27.13,0,0,0-.46-5.7,7.62,7.62,0,0,0-2.12-4,8.43,8.43,0,0,0-4.24-2,32.5,32.5,0,0,0-6.22-.46Zm10,9.16a25.75,25.75,0,0,1-.39,5.23,4.86,4.86,0,0,1-1.26,2.6,5.38,5.38,0,0,1-2.77,1.25,28.68,28.68,0,0,1-5.62.41v3a31.73,31.73,0,0,0,6.23-.47,8.31,8.31,0,0,0,4.25-2,7.8,7.8,0,0,0,2.1-4.1,28.73,28.73,0,0,0,.46-5.88Zm-10,9.49H296.42v3h22.42ZM489,52.67h1.5V51.17H489Zm-24.42,0v-1.5h-1.52l0,1.52Zm0-13.21-1.5,0,0,1.52h1.52Zm24.42,0V41h1.49V39.47Zm0,11.71H464.6v3H489ZM463.1,52.69a42.36,42.36,0,0,1-.67,9.49,9,9,0,0,1-2.67,5,11.93,11.93,0,0,1-5.94,2.46,63.91,63.91,0,0,1-11,.69v3a66.59,66.59,0,0,0,11.52-.74,14.88,14.88,0,0,0,7.38-3.15,12,12,0,0,0,3.62-6.64,45.21,45.21,0,0,0,.74-10.19ZM442.84,70.37c-9.4,0-14.21-1.06-16.9-4.19-1.35-1.58-2.29-3.82-2.88-7.12a76.7,76.7,0,0,1-.81-12.94h-3a80.49,80.49,0,0,0,.85,13.47,17.54,17.54,0,0,0,3.56,8.54c3.7,4.31,9.93,5.24,19.18,5.24ZM422.25,46.12a76.7,76.7,0,0,1,.81-12.94c.59-3.29,1.53-5.54,2.88-7.12,2.69-3.13,7.5-4.19,16.9-4.19v-3c-9.25,0-15.48.94-19.18,5.24a17.53,17.53,0,0,0-3.56,8.55,80.36,80.36,0,0,0-.85,13.46Zm20.59-24.25a63.75,63.75,0,0,1,11,.7A11.93,11.93,0,0,1,459.76,25a8.85,8.85,0,0,1,2.67,5,41.74,41.74,0,0,1,.67,9.42l3,0a44.74,44.74,0,0,0-.74-10.13,11.91,11.91,0,0,0-3.62-6.6,14.92,14.92,0,0,0-7.38-3.14,67.61,67.61,0,0,0-11.52-.74ZM464.6,41H489V38H464.6Zm25.92-1.49c.11-15.92-1.58-26.14-8.86-32.14-3.62-3-8.48-4.79-14.79-5.87S452.66,0,442.84,0V3c9.78,0,17.47.38,23.52,1.41s10.34,2.73,13.39,5.24c6.06,5,7.88,13.76,7.77,29.8ZM442.84,0C433,0,425.09.44,418.75,1.71s-11.25,3.42-14.9,6.91S398,16.83,396.62,23s-1.79,13.73-1.79,23.16h3c0-9.38.46-16.74,1.72-22.52s3.3-9.86,6.38-12.82,7.37-4.92,13.41-6.13S433.07,3,442.84,3Zm-48,46.12c0,9.44.46,17.06,1.79,23.17s3.59,10.84,7.23,14.34,8.54,5.63,14.9,6.9,14.27,1.71,24.09,1.71v-3c-9.77,0-17.46-.43-23.5-1.65S409,84.42,405.93,81.46s-5.12-7-6.38-12.81-1.72-13.15-1.72-22.53Zm48,46.12c9.82,0,17.72-.37,24-1.46s11.17-2.9,14.79-5.89c7.28-6,9-16.25,8.86-32.23l-3,0c.11,16.1-1.71,24.9-7.77,29.9-3.05,2.52-7.34,4.21-13.39,5.25s-13.74,1.41-23.52,1.41ZM560.45,2.83l1.42-.48-.35-1h-1.07Zm-37.74,0V1.33h-1.07l-.35,1ZM492.85,89.41l-1.42-.49-.68,2h2.1Zm25.53,0v1.5h1.13l.31-1.09Zm4.77-16.87V71H522l-.31,1.09Zm34.75,0,1.42-.46L559,71H557.9Zm5.43,16.87-1.42.46.33,1h1.09Zm26.64,0v1.5h2.1l-.68-2ZM528.59,53.67l-1.41-.52-.73,2h2.14Zm12.1-33.08v-1.5h-1.05l-.36,1Zm.89,0,1.42-.48-.34-1h-1.08Zm11.1,33.08v1.5h2.08l-.66-2Zm7.77-52.34H522.71v3h37.74Zm-39.16,1L491.43,88.92l2.84,1L524.13,3.32ZM492.85,90.91h25.53v-3H492.85Zm27-1.09L524.6,73l-2.89-.82L516.94,89ZM523.15,74H557.9V71H523.15Zm33.32-1,5.44,16.87,2.85-.92-5.44-16.87Zm6.86,17.91H590v-3H563.33Zm28.06-2L561.87,2.35l-2.84,1L588.55,89.9ZM530,54.19l12.1-33.08-2.82-1-12.1,33.07Zm10.69-32.1h.89v-3h-.89Zm-.53-1,11.1,33.08,2.84-1L543,20.11Zm12.52,31.1H528.59v3h24.09ZM594.94,2.83V1.33h-1.5v1.5Zm0,86.58h-1.5v1.5h1.5Zm23.31,0v1.5h1.5v-1.5Zm0-28.3v-1.5h-1.5v1.5Zm35,28.3-1.34.69.42.81h.92Zm25.53,0v1.5h1.5v-1.5Zm0-1h1.5v-.57l-.38-.42Zm-19.2-36.52-.34-1.46v2.93Zm-41.3-8.54h-1.5v1.5h1.5Zm0-21.65V20.2h-1.5v1.5ZM646.67,1.33H594.94v3h51.73Zm-53.23,1.5V89.41h3V2.83Zm1.5,88.08h23.31v-3H594.94Zm24.81-1.5V61.11h-3v28.3Zm-1.5-26.8h22.87v-3H618.25Zm22.87,0c3.65,0,5.46.62,6.52,1.89s1.75,3.93,1.75,8.82h3c0-4.88-.56-8.44-2.44-10.73s-5-3-8.83-3Zm8.27,10.71c0,7.74.42,12.75,2.49,16.78l2.67-1.37c-1.7-3.31-2.16-7.62-2.16-15.41Zm3.83,17.59h25.53v-3H653.22Zm27-1.5v-1h-3v1Zm-.38-2c-1.52-1.71-2.56-4.29-3.2-7.66a63.84,63.84,0,0,1-.86-11.66h-3a67.07,67.07,0,0,0,.91,12.23c.69,3.6,1.87,6.79,3.91,9.08ZM675.81,68.1c0-5.51-1.31-9.45-4.16-12.29s-6.83-4.26-11.77-5.38l-.67,2.93c4.83,1.09,8.17,2.44,10.32,4.58s3.28,5.13,3.28,10.16ZM659.88,53.36c6-1.36,10.36-3.34,13.19-6.53s4-7.45,4-12.81h-3c0,5-1,8.35-3.2,10.81s-5.85,4.3-11.62,5.6ZM677,34V30.69h-3V34Zm0-3.33a73.08,73.08,0,0,0-1.09-14.59c-.83-3.89-2.24-7-4.6-9.24s-5.5-3.65-9.52-4.45a79.3,79.3,0,0,0-15.15-1.08v3a76.52,76.52,0,0,1,14.56,1c3.69.74,6.23,1.92,8,3.66s3,4.18,3.75,7.71a69.72,69.72,0,0,1,1,14ZM619.75,43.35V21.7h-3V43.35Zm-1.5-20.15h22.43v-3H618.25Zm22.43,0a29.62,29.62,0,0,1,5.62.4,5.55,5.55,0,0,1,2.78,1.23,4.72,4.72,0,0,1,1.25,2.49,24,24,0,0,1,.39,5h3a26.41,26.41,0,0,0-.47-5.7,7.61,7.61,0,0,0-2.11-4,8.51,8.51,0,0,0-4.24-2,32.5,32.5,0,0,0-6.22-.46Zm10,9.16a24.93,24.93,0,0,1-.4,5.23,4.93,4.93,0,0,1-1.25,2.6,5.38,5.38,0,0,1-2.77,1.25,28.68,28.68,0,0,1-5.62.41v3a31.62,31.62,0,0,0,6.22-.47,8.27,8.27,0,0,0,4.25-2,7.8,7.8,0,0,0,2.1-4.1,28,28,0,0,0,.47-5.88Zm-10,9.49H618.25v3h22.43Zm68,47.56h-1.5v1.5h1.5Zm23.31,0v1.5h1.5v-1.5Zm0-67.71V20.2h-1.5v1.5Zm26.75,0v1.5h1.5V21.7Zm0-18.87h1.5V1.33h-1.5Zm-76.59,0V1.33h-1.5v1.5Zm0,18.87h-1.5v1.5h1.5Zm26.53,0h1.5V20.2h-1.5Zm0,69.21H732v-3H708.64Zm24.81-1.5V21.7h-3V89.41ZM732,23.2H758.7v-3H732Zm28.25-1.5V2.83h-3V21.7ZM758.7,1.33H682.11v3H758.7Zm-78.09,1.5V21.7h3V2.83Zm1.5,20.37h26.53v-3H682.11Zm25-1.5V89.41h3V21.7Z"/></g></g></svg>