<svg xmlns="http://www.w3.org/2000/svg" viewBox="0 0 342.52 192.62"><defs><style>.cls-1{fill:#fff;}</style></defs><title>your-cart</title><g id="Capa_2" data-name="Capa 2"><g id="Capa_1-2" data-name="Capa 1"><path class="cls-1" d="M82.89,2.75H59L43.58,32.91H43L27.87,2.75h-25L32.24,55V83.87H54.08V55Zm41.67,16.43c18,0,21.32,3.74,21.32,24.13s-3.33,24.13-21.32,24.13-21.32-3.75-21.32-24.13S106.57,19.18,124.56,19.18ZM80.36,43.31c0,35.25,7,41.81,44.2,41.81s44.2-6.56,44.2-41.81-7-41.81-44.2-41.81S80.36,8.05,80.36,43.31ZM248,50.59V2.75H226.19V50.59c0,14.25-2.19,16.85-14.15,16.85s-14.14-2.6-14.14-16.85V2.75H176.06V50.59c0,29.12,5.62,34.53,36,34.53S248,79.71,248,50.59ZM304.86,2.75H256.4V83.87h21.84V57.35h21.42c7,0,9.15,2.29,9.15,11.44,0,7.28.42,11.65,2.19,15.08h23.92v-.94c-3.33-3.74-4.16-10.81-4.16-19,0-9.88-4.68-13.1-13.84-15.18,11-2.5,15-7.08,15-16.75V28.85C331.9,6.8,327.84,2.75,304.86,2.75Zm-26.62,38V20.43h21c9.16,0,10.82,1.77,10.82,10,0,8.53-1.66,10.3-10.82,10.3Z"/><path class="cls-1" d="M82.89,2.75l1.31.72,1.23-2.22H82.89ZM59,2.75V1.25h-.92l-.42.82ZM43.58,32.91v1.5h.91l.42-.82Zm-.63,0-1.34.67.41.83H43ZM27.87,2.75l1.34-.67-.41-.83h-.93Zm-25,0V1.25H.35L1.6,3.48ZM32.24,55h1.5v-.4l-.19-.34Zm0,28.91h-1.5v1.5h1.5Zm21.84,0v1.5h1.5v-1.5Zm0-28.91-1.31-.73-.19.34V55ZM82.89,1.25H59v3H82.89Zm-25.26.82L42.24,32.23l2.67,1.36L60.3,3.43ZM43.58,31.41H43v3h.63Zm.71.83L29.21,2.08,26.53,3.42,41.61,33.58Zm-16.42-31h-25v3h25ZM1.6,3.48,30.93,55.69l2.62-1.47L4.22,2ZM30.74,55V83.87h3V55Zm1.5,30.41H54.08v-3H32.24Zm23.34-1.5V55h-3V83.87Zm-.19-28.19L84.2,3.47,81.57,2,52.77,54.23Zm69.17-35a48.57,48.57,0,0,1,10.58.86,10.47,10.47,0,0,1,5.71,3.05,13.39,13.39,0,0,1,2.76,6.62,70.52,70.52,0,0,1,.77,12.1h3a72.31,72.31,0,0,0-.82-12.64,16.19,16.19,0,0,0-3.47-8.06,13.35,13.35,0,0,0-7.26-4,50.86,50.86,0,0,0-11.27-.94Zm19.82,22.63a70.6,70.6,0,0,1-.77,12.1A13.35,13.35,0,0,1,140.85,62a10.35,10.35,0,0,1-5.71,3,47.86,47.86,0,0,1-10.58.87v3a50.8,50.8,0,0,0,11.27-1,13.28,13.28,0,0,0,7.26-4A16.23,16.23,0,0,0,146.56,56a72.38,72.38,0,0,0,.82-12.64ZM124.56,65.94A47.7,47.7,0,0,1,114,65.07a10.35,10.35,0,0,1-5.71-3,13.35,13.35,0,0,1-2.76-6.61,69.44,69.44,0,0,1-.78-12.1h-3A72.26,72.26,0,0,0,102.57,56,16.23,16.23,0,0,0,106,64a13.3,13.3,0,0,0,7.27,4,50.7,50.7,0,0,0,11.26,1ZM104.74,43.31a69.36,69.36,0,0,1,.78-12.1,13.39,13.39,0,0,1,2.76-6.62A10.47,10.47,0,0,1,114,21.54a48.41,48.41,0,0,1,10.57-.86v-3a50.77,50.77,0,0,0-11.26.94,13.38,13.38,0,0,0-7.27,4,16.19,16.19,0,0,0-3.46,8.06,72.19,72.19,0,0,0-.83,12.64Zm-25.88,0c0,8.84.44,16,1.71,21.73S84,75.23,87.47,78.52s8.14,5.3,14.19,6.49,13.57,1.61,22.9,1.61v-3c-9.28,0-16.58-.41-22.32-1.55s-9.79-3-12.71-5.73-4.84-6.56-6-12-1.64-12.3-1.64-21.08Zm45.7,43.31c9.33,0,16.87-.41,22.91-1.61s10.71-3.2,14.19-6.49,5.62-7.72,6.9-13.48,1.7-12.89,1.7-21.73h-3c0,8.78-.43,15.67-1.63,21.08s-3.12,9.2-6,12-7,4.6-12.7,5.73-13,1.55-22.33,1.55Zm45.7-43.31c0-8.84-.43-16-1.7-21.73s-3.42-10.19-6.9-13.49S153.52,2.8,147.47,1.6,133.89,0,124.56,0V3c9.29,0,16.58.41,22.33,1.55s9.78,3,12.7,5.72,4.84,6.57,6,12,1.63,12.29,1.63,21.08ZM124.56,0c-9.33,0-16.86.41-22.9,1.6S91,4.81,87.47,8.09s-5.62,7.73-6.9,13.49-1.71,12.89-1.71,21.73h3c0-8.79.44-15.68,1.64-21.08s3.12-9.2,6-12,7-4.59,12.71-5.72S115.28,3,124.56,3ZM248,2.75h1.5V1.25H248Zm-21.84,0V1.25h-1.5v1.5Zm-28.29,0h1.5V1.25h-1.5Zm-21.84,0V1.25h-1.5v1.5Zm73.47,47.84V2.75h-3V50.59ZM248,1.25H226.19v3H248Zm-23.34,1.5V50.59h3V2.75Zm0,47.84a50.78,50.78,0,0,1-.51,8.38,9.06,9.06,0,0,1-1.73,4.42c-1.54,1.83-4.36,2.55-10.41,2.55v3c5.91,0,10.17-.59,12.71-3.62a12.08,12.08,0,0,0,2.39-5.83,54.41,54.41,0,0,0,.55-8.9ZM212,65.94c-6,0-8.87-.72-10.41-2.55A9.06,9.06,0,0,1,199.91,59a50.78,50.78,0,0,1-.51-8.38h-3a53.31,53.31,0,0,0,.55,8.9,12,12,0,0,0,2.39,5.83c2.54,3,6.79,3.62,12.7,3.62ZM199.4,50.59V2.75h-3V50.59ZM197.9,1.25H176.06v3H197.9Zm-23.34,1.5V50.59h3V2.75Zm0,47.84c0,7.3.35,13.23,1.39,18s2.79,8.5,5.67,11.26,6.73,4.44,11.69,5.44,11.12,1.33,18.73,1.33v-3c-7.56,0-13.49-.34-18.14-1.27s-7.88-2.43-10.2-4.66-3.86-5.32-4.82-9.74-1.32-10.11-1.32-17.36Zm37.48,36c7.62,0,13.78-.34,18.73-1.33s8.81-2.67,11.69-5.44,4.64-6.48,5.68-11.26,1.39-10.7,1.39-18h-3c0,7.25-.35,12.92-1.32,17.36s-2.51,7.52-4.83,9.74-5.56,3.73-10.2,4.66S219.61,83.62,212,83.62ZM256.4,2.75V1.25h-1.5v1.5Zm0,81.12h-1.5v1.5h1.5Zm21.84,0v1.5h1.5v-1.5Zm0-26.52v-1.5h-1.5v1.5ZM311,83.87l-1.34.68.42.82H311Zm23.92,0v1.5h1.5v-1.5Zm0-.94h1.5v-.57l-.38-.42Zm-18-34.21-.33-1.47v2.93Zm-38.68-8h-1.5v1.5h1.5Zm0-20.28v-1.5h-1.5v1.5ZM304.86,1.25H256.4v3h48.46Zm-50,1.5V83.87h3V2.75Zm1.5,82.62h21.84v-3H256.4Zm23.34-1.5V57.35h-3V83.87Zm-1.5-25h21.42v-3H278.24Zm21.42,0c3.41,0,5.07.58,6,1.74s1.62,3.62,1.62,8.2h3c0-4.57-.51-7.94-2.31-10.11s-4.78-2.83-8.34-2.83Zm7.65,9.94c0,7.25.4,12,2.35,15.76l2.67-1.37c-1.58-3.07-2-7.09-2-14.39ZM311,85.37h23.92v-3H311Zm25.42-1.5v-.94h-3v.94ZM336,81.94a14.84,14.84,0,0,1-3-7.13,59.69,59.69,0,0,1-.8-10.91h-3a62.67,62.67,0,0,0,.85,11.47,17.78,17.78,0,0,0,3.68,8.56Zm-3.78-18c0-5.18-1.24-8.9-3.93-11.58s-6.44-4-11.07-5.07l-.67,2.93c4.52,1,7.62,2.28,9.62,4.27s3.05,4.75,3.05,9.45Zm-15-13.72C322.88,48.9,327,47,329.67,44S333.4,37,333.4,32h-3c0,4.65-.95,7.79-3,10.07s-5.43,4-10.83,5.21ZM333.4,32V28.85h-3V32Zm0-3.12a67.81,67.81,0,0,0-1-13.69A16.26,16.26,0,0,0,328,6.46c-2.22-2.16-5.19-3.45-9-4.2a74.67,74.67,0,0,0-14.22-1v3a71.91,71.91,0,0,1,13.63,1c3.44.69,5.8,1.79,7.46,3.41s2.79,3.87,3.49,7.17a66,66,0,0,1,1,13.07ZM279.74,40.71V20.43h-3V40.71Zm-1.5-18.78h21v-3h-21Zm21,0a27.74,27.74,0,0,1,5.25.37,5,5,0,0,1,2.56,1.13,4.23,4.23,0,0,1,1.14,2.29,22.17,22.17,0,0,1,.37,4.69h3a24.83,24.83,0,0,0-.44-5.36,7.2,7.2,0,0,0-2-3.8,8,8,0,0,0-4-1.89,30.6,30.6,0,0,0-5.85-.43Zm9.32,8.48a24.06,24.06,0,0,1-.37,4.89A4.51,4.51,0,0,1,307,37.68a4.93,4.93,0,0,1-2.55,1.15,26.79,26.79,0,0,1-5.25.38v3a29.89,29.89,0,0,0,5.86-.44,8.05,8.05,0,0,0,4-1.93,7.51,7.51,0,0,0,2-3.9,26.28,26.28,0,0,0,.44-5.53Zm-9.32,8.8h-21v3h21ZM88.34,155.44h1.5v-1.49H88.34Zm-22.88,0v-1.5H63.94l0,1.53Zm0-12.37-1.5,0,0,1.52h1.52Zm22.88,0v1.5h1.49v-1.49Zm0,10.87H65.46v3H88.34ZM64,155.47a39,39,0,0,1-.62,8.86A8.3,8.3,0,0,1,60.87,169a11.11,11.11,0,0,1-5.52,2.27,59.19,59.19,0,0,1-10.27.66v3a63.13,63.13,0,0,0,10.81-.7,14.07,14.07,0,0,0,7-3A11.3,11.3,0,0,0,66.27,165a42.44,42.44,0,0,0,.69-9.57ZM45.08,171.94c-8.81,0-13.28-1-15.77-3.9a13.59,13.59,0,0,1-2.68-6.63,72,72,0,0,1-.75-12.1h-3a74.47,74.47,0,0,0,.8,12.63A16.39,16.39,0,0,0,27,170c3.49,4.07,9.37,4.95,18,4.95Zm-19.2-22.63a72.09,72.09,0,0,1,.75-12.11,13.54,13.54,0,0,1,2.68-6.62c2.49-2.9,7-3.9,15.77-3.9v-3c-8.67,0-14.55.87-18,4.94a16.47,16.47,0,0,0-3.36,8.06,74.47,74.47,0,0,0-.8,12.63Zm19.2-22.63a60.37,60.37,0,0,1,10.27.65,11.07,11.07,0,0,1,5.52,2.27,8.24,8.24,0,0,1,2.47,4.65,38.4,38.4,0,0,1,.62,8.8l3,0a42,42,0,0,0-.69-9.51,11.21,11.21,0,0,0-3.42-6.24,14.05,14.05,0,0,0-7-3,63.13,63.13,0,0,0-10.81-.7Zm20.38,17.89H88.34v-3H65.46Zm24.38-1.49c.1-14.92-1.47-24.53-8.33-30.19-3.41-2.8-8-4.51-13.9-5.52S54.27,106,45.08,106v3c9.15,0,16.36.35,22,1.32s9.65,2.55,12.5,4.89c5.64,4.65,7.34,12.81,7.24,27.85ZM45.08,106c-9.21,0-16.64.41-22.6,1.6s-10.57,3.21-14,6.5-5.54,7.73-6.8,13.48S0,140.47,0,149.31H3c0-8.79.43-15.68,1.61-21.09s3.08-9.2,6-12,6.87-4.59,12.51-5.72,12.85-1.55,22-1.55ZM0,149.31c0,8.84.43,16,1.68,21.72s3.37,10.19,6.8,13.49,8,5.29,14,6.49,13.39,1.61,22.6,1.61v-3c-9.16,0-16.35-.41-22-1.55s-9.64-3-12.51-5.72-4.77-6.57-5.95-12S3,158.1,3,149.31Zm45.08,43.31c9.19,0,16.6-.35,22.53-1.37s10.49-2.73,13.9-5.54c6.86-5.67,8.43-15.31,8.33-30.28l-3,0c.1,15.1-1.6,23.29-7.24,27.94-2.85,2.35-6.84,3.93-12.5,4.9s-12.87,1.33-22,1.33Zm110.19-83.87,1.42-.49-.35-1h-1.07Zm-35.36,0v-1.5h-1.07l-.35,1Zm-28,81.12-1.42-.49-.68,2h2.1Zm23.92,0v1.5H117l.3-1.09Zm4.47-15.81v-1.5h-1.13l-.31,1.09Zm32.55,0,1.43-.46-.33-1h-1.1Zm5.1,15.81-1.43.46.34,1H158Zm25,0v1.5H185l-.68-2Zm-57.51-33.49-1.41-.51-.74,2h2.15Zm11.33-31v-1.5h-1l-.36,1Zm.84,0,1.42-.48-.34-1h-1.08Zm10.4,31v1.5h2.08l-.66-2Zm7.28-49.13H119.91v3h35.36Zm-36.78,1-28,81.12,2.84,1,28-81.12ZM91.93,191.37h23.92v-3H91.93Zm25.36-1.09,4.48-15.81-2.89-.82-4.47,15.81Zm3-14.72h32.55v-3H120.32Zm31.13-1,5.09,15.81,2.86-.92-5.1-15.81ZM158,191.37h25v-3H158Zm26.38-2-27.66-81.12-2.84,1,27.66,81.12Zm-57.52-32.49,11.33-31-2.81-1-11.34,31Zm9.92-30h.84v-3h-.84Zm-.59-1,10.4,31,2.85-1-10.4-31Zm11.83,29H125.42v3H148Zm39.6-46.13v-1.5h-1.5v1.5Zm0,81.12h-1.5v1.5h1.5Zm21.84,0v1.5h1.5v-1.5Zm0-26.52v-1.5h-1.5v1.5Zm32.76,26.52-1.34.69.42.81h.92Zm23.92,0v1.5h1.5v-1.5Zm0-.94h1.5v-.57l-.38-.42Zm-18-34.21-.33-1.47v2.93Zm-38.68-8h-1.5v1.5h1.5Zm0-20.28v-1.5h-1.5v1.5Zm26.62-19.18H187.59v3h48.46Zm-50,1.5v81.12h3V108.75Zm1.5,82.62h21.84v-3H187.59Zm23.34-1.5V163.35h-3v26.52Zm-1.5-25h21.42v-3H209.43Zm21.42,0c3.41,0,5.07.58,6,1.74s1.62,3.62,1.62,8.2h3c0-4.57-.51-7.94-2.3-10.11s-4.79-2.83-8.35-2.83Zm7.65,9.94c0,7.26.4,12,2.35,15.77l2.67-1.38c-1.58-3.07-2-7.09-2-14.39Zm3.69,16.58h23.92v-3H242.19Zm25.42-1.5v-.94h-3v.94Zm-.38-1.93a14.84,14.84,0,0,1-3-7.13,59.69,59.69,0,0,1-.8-10.91h-3a62.73,62.73,0,0,0,.86,11.48,17.64,17.64,0,0,0,3.68,8.55Zm-3.78-18c0-5.18-1.24-8.9-3.93-11.58s-6.44-4-11.07-5.07l-.67,2.93c4.52,1,7.63,2.28,9.62,4.27s3.05,4.75,3.05,9.45Zm-15-13.72c5.62-1.27,9.73-3.14,12.41-6.15s3.73-7,3.73-12.06h-3c0,4.65-.95,7.79-3,10.07s-5.43,4-10.83,5.21ZM264.59,138v-3.12h-3V138Zm0-3.12a67.81,67.81,0,0,0-1-13.69,16.26,16.26,0,0,0-4.33-8.7c-2.22-2.16-5.19-3.45-9-4.2a74.67,74.67,0,0,0-14.22-1v3a71.84,71.84,0,0,1,13.63,1c3.45.69,5.8,1.79,7.47,3.41s2.78,3.87,3.48,7.17a65.29,65.29,0,0,1,1,13.07Zm-53.66,11.86V126.43h-3v20.28Zm-1.5-18.78h21v-3h-21Zm21,0a27.92,27.92,0,0,1,5.26.37,5.06,5.06,0,0,1,2.56,1.13,4.3,4.3,0,0,1,1.13,2.29,21.52,21.52,0,0,1,.37,4.69h3a24.67,24.67,0,0,0-.44-5.35,7.2,7.2,0,0,0-2-3.81,8,8,0,0,0-4-1.89,30.78,30.78,0,0,0-5.86-.43Zm9.32,8.48a23.35,23.35,0,0,1-.37,4.89,4.48,4.48,0,0,1-1.15,2.38,4.89,4.89,0,0,1-2.55,1.15,26.79,26.79,0,0,1-5.25.38v3a29.89,29.89,0,0,0,5.86-.44,8,8,0,0,0,4-1.93,7.44,7.44,0,0,0,2-3.9,26.28,26.28,0,0,0,.44-5.53Zm-9.32,8.8h-21v3h21Zm63.69,44.66h-1.5v1.5h1.5Zm21.84,0v1.5h1.5v-1.5Zm0-63.44v-1.5h-1.5v1.5Zm25.06,0v1.5h1.5v-1.5Zm0-17.68h1.5v-1.5H341Zm-71.76,0v-1.5h-1.5v1.5Zm0,17.68h-1.5v1.5h1.5Zm24.86,0h1.5v-1.5h-1.5Zm0,64.94H316v-3H294.12Zm23.34-1.5V126.43h-3v63.44ZM316,127.93H341v-3H316Zm26.56-1.5V108.75h-3v17.68ZM341,107.25H269.26v3H341Zm-73.26,1.5v17.68h3V108.75Zm1.5,19.18h24.86v-3H269.26Zm23.36-1.5v63.44h3V126.43Z"/></g></g></svg>